<!--?xml version="1.0" encoding="UTF-8"?-->
<svg id="_レイヤー_3" data-name="レイヤー 3" xmlns="http://www.w3.org/2000/svg" xmlns:xlink="http://www.w3.org/1999/xlink" viewBox="0 0 1008.93 395.94" style="">
  <defs>
    <linearGradient id="_名称未設定グラデーション_244" data-name="名称未設定グラデーション 244" x1="327.59" y1="-18.46" x2="86.18" y2="120.92" gradientTransform="translate(-25.01 16.67) rotate(-.29) scale(1.1 .91) skewX(-8.57)" gradientUnits="userSpaceOnUse">
      <stop offset="0" stop-color="#cce08e"></stop>
      <stop offset=".06" stop-color="#c2dc91"></stop>
      <stop offset=".17" stop-color="#a9d29c"></stop>
      <stop offset=".31" stop-color="#7fc2ae"></stop>
      <stop offset=".46" stop-color="#46abc5"></stop>
      <stop offset=".57" stop-color="#1e9cd7"></stop>
      <stop offset=".87" stop-color="#0075be"></stop>
      <stop offset=".99" stop-color="#005b97"></stop>
    </linearGradient>
    <linearGradient id="_名称未設定グラデーション_244-2" data-name="名称未設定グラデーション 244" x1="237.01" y1="122.38" x2="197.08" y2="145.44" xlink:href="#_名称未設定グラデーション_244"></linearGradient>
    <linearGradient id="_名称未設定グラデーション_244-3" data-name="名称未設定グラデーション 244" x1="371.1" y1="80.65" x2="244.85" y2="153.54" xlink:href="#_名称未設定グラデーション_244"></linearGradient>
    <linearGradient id="_名称未設定グラデーション_244-4" data-name="名称未設定グラデーション 244" x1="584.04" y1="61.49" x2="373.01" y2="183.33" xlink:href="#_名称未設定グラデーション_244"></linearGradient>
    <linearGradient id="_名称未設定グラデーション_244-5" data-name="名称未設定グラデーション 244" x1="117.63" y1="253.72" x2="84.38" y2="272.92" xlink:href="#_名称未設定グラデーション_244"></linearGradient>
    <linearGradient id="_名称未設定グラデーション_244-6" data-name="名称未設定グラデーション 244" x1="350.44" y1="192.07" x2="89.8" y2="342.55" xlink:href="#_名称未設定グラデーション_244"></linearGradient>
    <linearGradient id="_名称未設定グラデーション_244-7" data-name="名称未設定グラデーション 244" x1="441.25" y1="254.6" x2="319.02" y2="325.18" xlink:href="#_名称未設定グラデーション_244"></linearGradient>
    <linearGradient id="_名称未設定グラデーション_244-8" data-name="名称未設定グラデーション 244" x1="502.07" y1="256.82" x2="368.64" y2="333.86" xlink:href="#_名称未設定グラデーション_244"></linearGradient>
    <linearGradient id="_名称未設定グラデーション_244-9" data-name="名称未設定グラデーション 244" x1="563.15" y1="254.85" x2="531.72" y2="273" xlink:href="#_名称未設定グラデーション_244"></linearGradient>
    <linearGradient id="_名称未設定グラデーション_244-10" data-name="名称未設定グラデーション 244" x1="706.68" y1="251.22" x2="528.88" y2="353.87" xlink:href="#_名称未設定グラデーション_244"></linearGradient>
    <linearGradient id="_名称未設定グラデーション_244-11" data-name="名称未設定グラデーション 244" x1="950.97" y1="188.47" x2="653.2" y2="360.4" xlink:href="#_名称未設定グラデーション_244"></linearGradient>
    <linearGradient id="_名称未設定グラデーション_244-12" data-name="名称未設定グラデーション 244" x1="808.46" y1="264.79" x2="793.47" y2="273.45" xlink:href="#_名称未設定グラデーション_244"></linearGradient>
  </defs>
  <path d="M78.24,111.07s-45.99-.4-40.62-22.05c5.37-21.65,42.88-31.3,54.53-32.71,8.24-1,29.26-2.69,32.65,12.87,3.39,15.56-40.79,73.53-50.34,81.27,0,0,81.98-77.49,88.23-75.04,5.15,2.02-28.24,54.16-40.18,72.49-.62,.95,.62,2.01,1.46,1.25C157.78,118.81,333.54-36.34,341.11,11.64" style="fill: none; stroke: url(#_名称未設定グラデーション_244); stroke-linecap: round; stroke-miterlimit: 10; stroke-opacity: .5; stroke-width: 5px;" class="WRqnJKCY_0"></path>
  <path d="M169.11,139.12s5.39,4.95,15.11-2.94c9.84-8-13.09-5.55-15.27,2.41-2.48,9.06,7.65,9.14,13.77,8.94,7.59-.25,35.53-9.93,35.53-9.93" style="fill: none; stroke: url(#_名称未設定グラデーション_244-2); stroke-linecap: round; stroke-miterlimit: 10; stroke-opacity: .5; stroke-width: 5px;" class="WRqnJKCY_1"></path>
  <path d="M229.82,124.3s-3.93,7.02,4.14,6.97,70.82-29.8,66.72-41.57-96.34,41.19-82.07,57.44c12.46,14.19,83.42-25.33,83.42-25.33,0,0-5.73,11.46,4.69,11.15,16.81-.5,79.78-37.82,59.4-40.73-26.36-3.77-106.08,54.91-76.05,58.89,13.88,1.84,49.4-14.55,49.4-14.55" style="fill: none; stroke: url(#_名称未設定グラデーション_244-3); stroke-linecap: round; stroke-miterlimit: 10; stroke-opacity: .5; stroke-width: 5px;" class="WRqnJKCY_2"></path>
  <path d="M356.49,135.11s7.96-3.47,1.84-6.05c-5.95-2.51-24.8,7.86-19.73,13.88,5.08,6.02,56.88-5.63,56.88-5.63l6.57-4.44s-12.66,9.39-5.45,11.26c10.26,2.66,21.39-14.69,16.88-15.88s-6.43,1.62-6.43,1.62c0,0,27.53,9.29,61.39-2.83,8.61-3.08-10.8,16.44-8.61,15.5,2.49-1.07,20.43-12.87,22.27-11.26,1.47,1.29-4.43,9.08-6.82,12.11-.16,.2,.12,.39,.34,.23,4.14-3.05,17.07-12.1,22.92-10.81,0,0-9.48,8-7.56,10.21s34.86-1.6,38.12-7.19c0,0,1.45,3.28,5.46,3.15,4.9-.16,10.94-3.45,10.53-6.73-.95-7.59-33.45,4.41-23.28,16.02,10.11,11.55,105.46-34.02,105.46-34.02" style="fill: none; stroke: url(#_名称未設定グラデーション_244-4); stroke-linecap: round; stroke-miterlimit: 10; stroke-opacity: .5; stroke-width: 5px;" class="WRqnJKCY_3"></path>
  <path d="M21.73,254.69s3.77,3.47,18.05,1.53c14.28-1.94,24.05-2.94,25.68,.86" style="fill: none; stroke: url(#_名称未設定グラデーション_244-5); stroke-linecap: round; stroke-miterlimit: 10; stroke-opacity: .5; stroke-width: 5px;" class="WRqnJKCY_4"></path>
  <path d="M52.66,246.97s-63.9,40.07-47.46,46.98c16.43,6.91,57.2-15.23,57.2-15.23,0,0-10.95,5.46-4.04,7.65s26.62-13.81,15.16-14.07c-11.47-.26-5.11,.66-5.11,.66,0,0,46.24,2.37,63.64-2.2l2.01-.04-12.53,19.81c-.52,.68,.29,1.57,1.01,1.11,5.9-3.75,19.35-16.72,23.16-16.65,5.24,.09-9.06,21.85-9.06,21.85,0,0,20.77-21.48,25.54-20.23s-7.7,16.09-6.89,17.99,39.65-29.41,50.6-29.22-4.39,18.98-2.16,21.51,45.58-26.2,45.58-26.2c0,0-89.05,80.1-100.14,72.71-11.09-7.39,196.81-105.64,196.81-105.64" style="fill: none; stroke: url(#_名称未設定グラデーション_244-6); stroke-linecap: round; stroke-miterlimit: 10; stroke-opacity: .5; stroke-width: 5px;" class="WRqnJKCY_5"></path>
  <path d="M310.83,278.64c-1.03-.19,19.9-11.26,35.11-13.49,0,0-1.38,22.01,45.64-11.62,47.02-33.62-6.55-23.35-47.5,10.49-40.95,33.84-58.75,64.01-58.75,64.01" style="fill: none; stroke: url(#_名称未設定グラデーション_244-7); stroke-linecap: round; stroke-miterlimit: 10; stroke-opacity: .5; stroke-width: 5px;" class="WRqnJKCY_6"></path>
  <path d="M319.49,285.7s-11.09,12.78,7.92,9.5c19-3.28,47.39-14.76,47.39-14.76,0,0,.46,2.44,4.68,4.64,4.22,2.2,21.96-3.53,22.85-11.36s-15.42-1.92-13.54,4.53c1.88,6.46,2.54,7.09,10.88,7.68,8.34,.59,60.02-15.9,62.22-26.28,2.21-10.38-16.67,.93-15.37,4.42s23.81,5.71,23.81,5.71c0,0-24.58,7.33-20.06,14.3,4.52,6.97,47.88-5.96,47.88-5.96" style="fill: none; stroke: url(#_名称未設定グラデーション_244-8); stroke-linecap: round; stroke-miterlimit: 10; stroke-opacity: .5; stroke-width: 5px;" class="WRqnJKCY_7"></path>
  <path d="M513.51,252.21s.65,3.47,5.44,3.86,30.75-4.61,33.87-2.71c3.12,1.89,1.47,2.63,1.47,2.63" style="fill: none; stroke: url(#_名称未設定グラデーション_244-9); stroke-linecap: round; stroke-miterlimit: 10; stroke-opacity: .5; stroke-width: 5px;" class="WRqnJKCY_8"></path>
  <path d="M542.62,244.44s-62.21,40.77-45.78,47.68c16.43,6.91,59.13-17.47,59.13-17.47,0,0-12.22,8.33-6.36,9.89s22.62-6.71,22.95-11.68c.33-4.97-7.72-7.16-10.6-1.74s-6.64,11.48,1.09,13.35,64.31-9.86,73.91-20.72c0,0-3.76,19.1,44.33-9.76,48.1-28.86,10.76-36.94-42.06,5.62-52.82,42.56-106.74,133.84-106.74,133.84" style="fill: none; stroke: url(#_名称未設定グラデーション_244-10); stroke-linecap: round; stroke-miterlimit: 10; stroke-opacity: .5; stroke-width: 5px;" class="WRqnJKCY_9"></path>
  <path d="M613.72,282.31s-7.6,6.08,.34,8.9,66.16-16.62,66.16-16.62c0,0-17.16,6.52-8.89,9.66,8.27,3.14,27.32-9.04,23.49-13.47s-11.02-2.81-11.81,1.65-5.92,11.8,1.32,12.08,79.33-17.4,102.29-35.81c16.1-12.91,13.5-17.31,11.05-16.91-22.79,3.72-79.76,40.78-64.18,54.7,15.58,13.91,69.29-16.32,69.29-16.32,0,0-11.95,6.81-6.76,12.19,5.19,5.38,61.22-24.91,67.83-17.14,0,0-17.2,12.38-15.1,18.46,7.76,22.49,42.39-12.62,22.24-15.8-8.51-1.34-4.95,9.67-4.81,10.31,.47,2.07,.84,8.95,6.79,12.1,20.92,11.07,142.19-45.77,132.92-70.48" style="fill: none; stroke: url(#_名称未設定グラデーション_244-11); stroke-linecap: round; stroke-miterlimit: 10; stroke-opacity: .5; stroke-width: 5px;" class="WRqnJKCY_10"></path>
  <path d="M811.23,260.86c.19-1.06,3.38-10.4,6.07-8.3,2.7,2.11-11.78,7.27-11.78,7.27" style="fill: none; stroke: url(#_名称未設定グラデーション_244-12); stroke-linecap: round; stroke-miterlimit: 10; stroke-opacity: .5; stroke-width: 5px;" class="WRqnJKCY_11"></path>
<style data-made-with="vivus-instant">.WRqnJKCY_0{stroke-dasharray:729 731;stroke-dashoffset:730;animation:WRqnJKCY_draw 443ms linear 0ms forwards;}.WRqnJKCY_1{stroke-dasharray:99 101;stroke-dashoffset:100;animation:WRqnJKCY_draw 60ms linear 443ms forwards;}.WRqnJKCY_2{stroke-dasharray:552 554;stroke-dashoffset:553;animation:WRqnJKCY_draw 335ms linear 503ms forwards;}.WRqnJKCY_3{stroke-dasharray:527 529;stroke-dashoffset:528;animation:WRqnJKCY_draw 320ms linear 839ms forwards;}.WRqnJKCY_4{stroke-dasharray:46 48;stroke-dashoffset:47;animation:WRqnJKCY_draw 28ms linear 1160ms forwards;}.WRqnJKCY_5{stroke-dasharray:868 870;stroke-dashoffset:869;animation:WRqnJKCY_draw 527ms linear 1188ms forwards;}.WRqnJKCY_6{stroke-dasharray:282 284;stroke-dashoffset:283;animation:WRqnJKCY_draw 171ms linear 1716ms forwards;}.WRqnJKCY_7{stroke-dasharray:333 335;stroke-dashoffset:334;animation:WRqnJKCY_draw 202ms linear 1888ms forwards;}.WRqnJKCY_8{stroke-dasharray:45 47;stroke-dashoffset:46;animation:WRqnJKCY_draw 27ms linear 2091ms forwards;}.WRqnJKCY_9{stroke-dasharray:614 616;stroke-dashoffset:615;animation:WRqnJKCY_draw 373ms linear 2119ms forwards;}.WRqnJKCY_10{stroke-dasharray:807 809;stroke-dashoffset:808;animation:WRqnJKCY_draw 490ms linear 2492ms forwards;}.WRqnJKCY_11{stroke-dasharray:27 29;stroke-dashoffset:28;animation:WRqnJKCY_draw 17ms linear 2982ms forwards;}@keyframes WRqnJKCY_draw{100%{stroke-dashoffset:0;}}@keyframes WRqnJKCY_fade{0%{stroke-opacity:1;}94.44444444444444%{stroke-opacity:1;}100%{stroke-opacity:0;}}</style></svg>